<svg contentScriptType="application/ecmascript" contentStyleType="text/css" height="343" preserveAspectRatio="none" viewBox="0 0 437 343" width="437" xmlns="http://www.w3.org/2000/svg" xmlns:xlink="http://www.w3.org/1999/xlink" zoomAndPan="magnify"><filter id="a" height="300%" width="300%" x="-1" y="-1"><feGaussianBlur result="blurOut" stdDeviation="2"/><feColorMatrix in="blurOut" result="blurOut2" type="matrix" values="0 0 0 0 0 0 0 0 0 0 0 0 0 0 0 0 0 0 .4 0"/><feOffset dx="4" dy="4" in="blurOut2" result="blurOut3"/><feBlend in="SourceGraphic" in2="blurOut3" mode="normal"/></filter><path d="m250 200h152v36.2969h-152z" fill="#fefece" filter="url(#a)" stroke="#a80036" stroke-width="1.5"/><path d="m245 205h10v5h-10z" fill="#fefece" stroke="#a80036" stroke-width="1.5"/><path d="m245 226.2969h10v5h-10z" fill="#fefece" stroke="#a80036" stroke-width="1.5"/><text font-family="sans-serif" font-size="14" lengthAdjust="spacingAndGlyphs" textLength="132" x="260" y="222.9951">halo-admin-domain</text><path d="m6 200h138v36.2969h-138z" fill="#fefece" filter="url(#a)" stroke="#a80036" stroke-width="1.5"/><path d="m1 205h10v5h-10z" fill="#fefece" stroke="#a80036" stroke-width="1.5"/><path d="m1 226.2969h10v5h-10z" fill="#fefece" stroke="#a80036" stroke-width="1.5"/><text font-family="sans-serif" font-size="14" lengthAdjust="spacingAndGlyphs" textLength="118" x="16" y="222.9951">halo-admin-client</text><path d="m229.5 296h193v36.2969h-193z" fill="#fefece" filter="url(#a)" stroke="#a80036" stroke-width="1.5"/><path d="m224.5 301h10v5h-10z" fill="#fefece" stroke="#a80036" stroke-width="1.5"/><path d="m224.5 322.2969h10v5h-10z" fill="#fefece" stroke="#a80036" stroke-width="1.5"/><text font-family="sans-serif" font-size="14" lengthAdjust="spacingAndGlyphs" textLength="173" x="239.5" y="318.9951">halo-admin-infrastructure</text><path d="m136.5 104h127v36.2969h-127z" fill="#fefece" filter="url(#a)" stroke="#a80036" stroke-width="1.5"/><path d="m131.5 109h10v5h-10z" fill="#fefece" stroke="#a80036" stroke-width="1.5"/><path d="m131.5 130.2969h10v5h-10z" fill="#fefece" stroke="#a80036" stroke-width="1.5"/><text font-family="sans-serif" font-size="14" lengthAdjust="spacingAndGlyphs" textLength="107" x="146.5" y="126.9951">halo-admin-app</text><path d="m198 8h132v36.2969h-132z" fill="#fefece" filter="url(#a)" stroke="#a80036" stroke-width="1.5"/><path d="m193 13h10v5h-10z" fill="#fefece" stroke="#a80036" stroke-width="1.5"/><path d="m193 34.2969h10v5h-10z" fill="#fefece" stroke="#a80036" stroke-width="1.5"/><text font-family="sans-serif" font-size="14" lengthAdjust="spacingAndGlyphs" textLength="112" x="208" y="30.9951">halo-admin-start</text><g stroke="#a80036"><path d="m326 236.0569v54.6162" fill="none"/><path d="m326 295.6977 4-9-4 4-4-4z" fill="#a80036"/><path d="m176.4885 140.0569c-20.9055 16.0553-51.5006 39.5524-73.6284 56.5466" fill="none"/><path d="m98.8311 199.6977 9.5743-2.3095-5.6088-.736.736-5.6087z" fill="#a80036"/><path d="m223.6996 140.0569c21.0727 16.0553 51.9126 39.5524 74.2174 56.5466" fill="none"/><path d="m301.9782 199.6977-4.7349-8.636.7577 5.6059-5.6059.7577z" fill="#a80036"/><path d="m201.7506 140.3625c2.9872 23.7542 10.77 65.6385 30.2494 95.6375 15.0946 23.2463 39.2789 43.0877 59.3365 56.9414" fill="none"/><path d="m295.5491 295.8058-5.1935-8.3683 1.0587 5.5569-5.5569 1.0588z" fill="#a80036"/><path d="m251.9621 44.0569c-10.3927 15.589-25.4625 38.1937-36.6998 55.0496" fill="none"/><path d="m212.2015 103.6977 8.3205-5.2696-5.547 1.1094-1.1093-5.547z" fill="#a80036"/><path d="m210.3589 44.1253c-30.3387 12.6309-66.9668 32.2208-91.3589 59.8747-23.0586 26.1421-34.6435 65.6899-39.9841 90.665" fill="none"/><path d="m77.9691 199.7632 5.7286-8.0115-4.7229 3.1137-3.1136-4.7228z" fill="#a80036"/><path d="m269.8328 44.0629c11.309 35.0212 36.2007 112.1054 48.6986 150.8086" fill="none"/><path d="m320.1375 199.8452 1.0408-9.7937-2.5773 5.0356-5.0356-2.5773z" fill="#a80036"/><path d="m289.1014 44.197c36.7772 28.4013 103.7672 87.1828 129.8986 155.803 5.6941 14.9525 6.7636 21.4998 0 36-11.3103 24.2478-34.2783 43.6302-54.558 57.0088" fill="none"/><path d="m360.1605 295.7721 9.7309-1.5198-5.5299-1.1916 1.1916-5.5299z" fill="#a80036"/></g></svg>