<?xml version="1.0" standalone="no"?><!DOCTYPE svg PUBLIC "-//W3C//DTD SVG 1.1//EN" "http://www.w3.org/Graphics/SVG/1.1/DTD/svg11.dtd"><svg t="1587448735378" class="icon" viewBox="0 0 1024 1024" version="1.1" xmlns="http://www.w3.org/2000/svg" p-id="1974" xmlns:xlink="http://www.w3.org/1999/xlink" width="200" height="200"><defs><style type="text/css"></style></defs><path d="M480.17408 169.28768c145.7664-20.34688 259.1744-68.92544 253.31712-108.4416-5.79584-39.39328-128.78848-54.94784-274.55488-34.59072-145.77664 20.35712-259.28704 68.88448-253.42976 108.3392 5.85728 39.55712 128.77824 54.99904 274.66752 34.69312zM460.91264 39.72096c85.83168-12.00128 210.35008-4.90496 213.79072 18.25792 3.39968 23.37792-109.52704 62.09536-195.34848 74.10688-85.82144 11.95008-213.05344 5.10976-216.49408-18.06336-3.4304-23.26528 112.29184-62.40256 198.05184-74.30144z" fill="#ff6a00" p-id="1975"></path><path d="M472.85248 518.15424c0-5.2224-1.55648-10.12736-4.13696-14.56128-11.50976 6.83008-25.96864 11.008-42.04544 11.008-15.91296 0-30.26944-4.11648-41.728-10.752a28.44672 28.44672 0 0 0-3.97312 14.29504c0 19.5072 20.59264 35.4816 45.91616 35.4816 25.42592 0 45.96736-15.96416 45.96736-35.47136zM614.00064 514.60096c-15.91296 0-30.21824-4.11648-41.71776-10.752a28.8256 28.8256 0 0 0-3.93216 14.29504c0 19.5072 20.54144 35.4816 45.86496 35.4816 25.42592 0 46.0288-15.9744 46.0288-35.4816 0-5.2224-1.49504-10.12736-4.1984-14.56128-11.48928 6.84032-25.89696 11.01824-42.04544 11.01824zM466.56512 451.71712c0.9728-3.39968 1.29024-6.78912 0.59392-10.17856-3.92192-16.90624-30.21824-25.09824-58.9312-18.15552-28.66176 6.89152-48.77312 26.20416-44.9024 43.2128 0.74752 3.33824 2.58048 6.20544 4.89472 8.76544 3.76832-15.03232 20.80768-29.5424 43.8784-35.072s44.57472-0.41984 54.46656 11.42784zM631.10144 423.80288c-29.0304-5.2736-54.94784 4.38272-57.9584 21.504-0.59392 3.44064 0.0512 6.77888 1.1264 10.11712 9.29792-12.42112 30.53568-18.72896 53.82144-14.39744 23.33696 4.11648 41.13408 17.64352 45.59872 32.4608 2.26304-2.72384 3.88096-5.64224 4.51584-9.08288 2.9696-17.12128-18.176-35.28704-47.104-40.6016z" fill="#ff6a00" p-id="1976"></path><path d="M943.95392 705.024c-7.30112-26.34752-38.06208-55.83872-86.55872-45.40416l-111.0016-56.5248c-0.86016-25.04704-1.72032-51.29216-2.26304-65.95584-2.58048-149.0432-0.52224-350.47424-0.52224-352.34816l0.48128-38.93248L657.99168 287.744l21.61664-167.66976-25.64096 40.97024c-21.56544 34.48832-84.69504 126.81216-117.76 139.59168a176.41472 176.41472 0 0 1-66.63168 11.47904c-115.11808-2.29376-219.82208-108.544-220.88704-109.57824l-24.25856-24.90368 6.4 34.60096c29.58336 161.55648 43.99104 294.62528 49.58208 402.65728L167.49568 670.6176c-48.39424-11.0592-79.58528 18.00192-87.11168 44.29824-13.33248 46.336 10.53696 82.40128 47.74912 94.30016 25.6 8.0384 74.09664 1.24928 88.18688-48.62976 0.74752-2.77504 4.46464-15.50336 1.60768-27.65824l65.06496-31.46752c2.1504 217.1392-34.3552 305.23392-34.3552 305.23392h254.17728l33.65888-82.18624 33.98656 82.18624h231.49568s-46.20288-181.92384-52.224-313.57952l56.36096 28.12928c-2.9184 12.16512 0.58368 24.94464 1.34144 27.76064 13.53728 50.05312 61.88032 57.45664 87.6032 49.68448 37.35552-11.37664 61.61408-47.22688 48.91648-93.66528z m-750.66368 16.65024c4.89472 9.91232 5.70368 25.14944 0.43008 38.18496-9.89184 24.73984-34.94912 38.52288-64.90112 28.38528-26.40896-8.97024-38.66624-40.01792-28.61056-66.17088 9.73824-25.45664 40.6016-38.2976 67.21536-27.2896l114.05312-53.44256c0.53248 12.9536 0.96256 25.51808 1.1776 37.7344l-89.36448 42.5984z m584.62208 265.92256l-185.2416 2.29376-53.83168-116.46976-52.5312 115.64032-206.00832-0.3072c38.4-149.36064 24.85248-581.43744-27.31008-745.51296 39.36256 32.5632 122.112 90.69568 213.0432 91.21792 26.03008 0.1024 50.98496-4.58752 74.37312-13.8752 30.81216-12.42112 74.14784-70.92224 101.35552-111.47264l-20.11136 173.8752 95.82592-162.7136c0.31744 64.19456 10.21952 426.3424 11.81696 442.7776 1.23904 115.17952 35.66592 277.26848 48.61952 324.54656z m116.67456-209.88928c-30.09536 9.75872-54.95808-4.33152-64.64512-29.22496-4.99712-13.14816-4.07552-28.38528 0.98304-38.1952l-81.79712-40.18176c0-1.61792-0.04096-3.28704-0.04096-4.90496-0.37888-4.43392-0.98304-17.73568-1.61792-34.43712l109.57824 52.97152c26.7776-10.6496 57.4976 2.54976 66.89792 28.12928 9.78944 26.29632-2.89792 57.28256-29.35808 65.8432z" fill="#ff6a00" p-id="1977"></path><path d="M543.2832 740.88448zM501.73952 742.656zM517.3248 743.79264zM489.91232 740.49536c-24.76032-5.94944-46.52032-19.70176-63.0272-38.56384 22.3744-25.40544 54.36416-41.74848 90.43968-41.74848 35.98336 0 67.97312 16.34304 90.33728 41.74848-16.60928 18.98496-38.52288 32.79872-63.41632 38.67648 54.39488-12.60544 95.03744-62.50496 95.03744-122.27584H395.264c0 59.60704 40.448 109.3632 94.64832 122.1632zM530.35008 743.05536z" fill="#ff6a00" p-id="1978"></path><path d="M607.66208 701.94176c-22.3744-25.40544-54.36416-41.74848-90.33728-41.74848-36.07552 0-68.06528 16.34304-90.43968 41.74848 16.50688 18.86208 38.26688 32.6144 63.0272 38.56384l1.50528 0.39936c3.3792 0.75776 6.84032 1.29024 10.32192 1.76128 0.86016 0.11264 1.69984 0.29696 2.56 0.39936a118.8352 118.8352 0 0 0 26.05056 0c0.75776-0.09216 1.4848-0.256 2.23232-0.34816 3.61472-0.48128 7.19872-1.03424 10.7008-1.83296 0.32768-0.07168 0.64512-0.18432 0.9728-0.256 24.89344-5.888 46.80704-19.712 63.40608-38.68672z" fill="#ff6a00" p-id="1979"></path></svg>